<?xml version="1.0" encoding="utf-8"?>
<!-- Generator: Adobe Illustrator 16.0.0, SVG Export Plug-In . SVG Version: 6.00 Build 0)  -->
<!DOCTYPE svg PUBLIC "-//W3C//DTD SVG 1.1//EN" "http://www.w3.org/Graphics/SVG/1.1/DTD/svg11.dtd">
<svg version="1.1" id="Layer_1" xmlns="http://www.w3.org/2000/svg" xmlns:xlink="http://www.w3.org/1999/xlink" x="0px" y="0px"
	 width="792px" height="612px" viewBox="0 0 792 612" enable-background="new 0 0 792 612" xml:space="preserve">
<line fill="none" stroke="#F1F2F2" stroke-width="2" stroke-linecap="round" stroke-linejoin="round" stroke-miterlimit="10" x1="272.707" y1="306.652" x2="287.961" y2="306.652"/>
<path fill="none" stroke="#F1F2F2" stroke-width="2" stroke-linecap="round" stroke-linejoin="round" stroke-miterlimit="10" d="
	M222.711,346.902v-43.5h16.246c10.223,0,18.504-8.273,18.504-18.496c0-10.234-8.281-18.508-18.504-18.508h-17.625"/>
<path fill="none" stroke="#F1F2F2" stroke-width="2" stroke-linecap="round" stroke-linejoin="round" stroke-miterlimit="10" d="
	M257.453,346.902l30.5-80.504L257.453,346.902z"/>
<path fill="none" stroke="#F1F2F2" stroke-width="2" stroke-linecap="round" stroke-linejoin="round" stroke-miterlimit="10" d="
	M305.52,305.391l17.789,39.496L305.52,305.391z"/>
<polyline fill="none" stroke="#F1F2F2" stroke-width="2" stroke-linecap="round" stroke-linejoin="round" stroke-miterlimit="10" points="
	363.953,344.887 363.953,266.402 332.203,266.402 "/>
<path fill="none" stroke="#A7A9AC" stroke-width="3" stroke-linecap="round" stroke-linejoin="round" stroke-miterlimit="10" d="
	M486.891,344.887L486.891,344.887c-15.43,0-28.062-12.629-28.062-28.055v-23.746c0-15.434,12.633-28.062,28.062-28.062
	c15.434,0,28.066,12.629,28.066,28.062v23.746C514.957,332.258,502.324,344.887,486.891,344.887z"/>
<line fill="none" stroke="#F1F2F2" stroke-width="2" stroke-linecap="round" stroke-linejoin="round" stroke-miterlimit="10" x1="391.703" y1="265.395" x2="391.703" y2="304.641"/>
<line fill="none" stroke="#F1F2F2" stroke-width="2" stroke-linecap="round" stroke-linejoin="round" stroke-miterlimit="10" x1="431.078" y1="265.395" x2="431.078" y2="285.016"/>
<line fill="none" stroke="#F1F2F2" stroke-width="2" stroke-linecap="round" stroke-linejoin="round" stroke-miterlimit="10" x1="391.703" y1="324.922" x2="391.703" y2="345.895"/>
<line fill="none" stroke="#F1F2F2" stroke-width="2" stroke-linecap="round" stroke-linejoin="round" stroke-miterlimit="10" x1="431.078" y1="304.641" x2="431.078" y2="345.895"/>
<line fill="none" stroke="#F1F2F2" stroke-width="2" stroke-linecap="round" stroke-linejoin="round" stroke-miterlimit="10" x1="391.703" y1="304.641" x2="431.078" y2="304.641"/>
<path fill="none" stroke="#A7A9AC" stroke-width="3" stroke-linecap="round" stroke-linejoin="round" stroke-miterlimit="10" d="
	M538.703,324.922c0,11.035,7.383,19.969,16.496,19.969"/>
<path fill="none" stroke="#A7A9AC" stroke-width="3" stroke-linecap="round" stroke-linejoin="round" stroke-miterlimit="10" d="
	M538.703,284.992c0,11.031,7.383,19.969,16.496,19.969"/>
<path fill="none" stroke="#A7A9AC" stroke-width="3" stroke-linecap="round" stroke-linejoin="round" stroke-miterlimit="10" d="
	M555.199,344.887c9.121,0,16.496-8.926,16.496-19.965"/>
<path fill="none" stroke="#A7A9AC" stroke-width="3" stroke-linecap="round" stroke-linejoin="round" stroke-miterlimit="10" d="
	M571.695,324.922c0-11.031-7.379-19.965-16.496-19.965"/>
<path fill="none" stroke="#A7A9AC" stroke-width="3" stroke-linecap="round" stroke-linejoin="round" stroke-miterlimit="10" d="
	M571.695,284.992c0-11.031-7.379-19.969-16.496-19.969"/>
<path fill="none" stroke="#A7A9AC" stroke-width="3" stroke-linecap="round" stroke-linejoin="round" stroke-miterlimit="10" d="
	M555.199,265.027c-9.117,0-16.496,8.93-16.496,19.969"/>
</svg>
