<?xml version="1.0" encoding="utf-8"?>
<!-- Generator: Adobe Illustrator 16.0.0, SVG Export Plug-In . SVG Version: 6.00 Build 0)  -->
<!DOCTYPE svg PUBLIC "-//W3C//DTD SVG 1.1//EN" "http://www.w3.org/Graphics/SVG/1.1/DTD/svg11.dtd" [
	<!ENTITY ns_extend "http://ns.adobe.com/Extensibility/1.0/">
	<!ENTITY ns_ai "http://ns.adobe.com/AdobeIllustrator/10.0/">
	<!ENTITY ns_graphs "http://ns.adobe.com/Graphs/1.0/">
	<!ENTITY ns_vars "http://ns.adobe.com/Variables/1.0/">
	<!ENTITY ns_imrep "http://ns.adobe.com/ImageReplacement/1.0/">
	<!ENTITY ns_sfw "http://ns.adobe.com/SaveForWeb/1.0/">
	<!ENTITY ns_custom "http://ns.adobe.com/GenericCustomNamespace/1.0/">
	<!ENTITY ns_adobe_xpath "http://ns.adobe.com/XPath/1.0/">
]>
<svg version="1.1" id="Layer_2" xmlns:x="&ns_extend;" xmlns:i="&ns_ai;" xmlns:graph="&ns_graphs;"
	 xmlns="http://www.w3.org/2000/svg" xmlns:xlink="http://www.w3.org/1999/xlink" x="0px" y="0px" width="398px" height="104px"
	 viewBox="0 0 398 104" enable-background="new 0 0 398 104" xml:space="preserve">
<metadata>
	<sfw  xmlns="&ns_sfw;">
		<slices></slices>
		<sliceSourceBounds  width="378.762" height="84.036" x="115.986" y="357.242" bottomLeftOrigin="true"></sliceSourceBounds>
	</sfw>
</metadata>
<g id="Layer_1_2_">
	<path fill="none" stroke="#999999" stroke-width="3" stroke-linecap="round" stroke-linejoin="round" stroke-miterlimit="10" d="
		M336.321,88.905h-5.48c-16.448,0-29.772-17.621-29.772-39.395c0-21.798,13.324-39.421,29.772-39.421h5.48"/>
	
		<line fill="none" stroke="#999999" stroke-width="3" stroke-linecap="round" stroke-linejoin="round" stroke-miterlimit="10" x1="204.104" y1="49.925" x2="215.507" y2="49.925"/>
	<path fill="none" stroke="#999999" stroke-width="3" stroke-linecap="round" stroke-linejoin="round" stroke-miterlimit="10" d="
		M192.7,89.758l22.801-79.668L192.7,89.758z"/>
	<path fill="none" stroke="#999999" stroke-width="3" stroke-linecap="round" stroke-linejoin="round" stroke-miterlimit="10" d="
		M228.632,48.677l13.298,39.087L228.632,48.677z"/>
	<path fill="none" stroke="#999999" stroke-width="3" stroke-linecap="round" stroke-linejoin="round" stroke-miterlimit="10" d="
		M11.39,48.551l24.938,40.432L11.39,48.551z"/>
	
		<line fill="none" stroke="#999999" stroke-width="3" stroke-linecap="round" stroke-linejoin="round" stroke-miterlimit="10" x1="357.307" y1="8.722" x2="357.307" y2="47.568"/>
	
		<line fill="none" stroke="#999999" stroke-width="3" stroke-linecap="round" stroke-linejoin="round" stroke-miterlimit="10" x1="386.748" y1="8.722" x2="386.748" y2="28.143"/>
	
		<line fill="none" stroke="#999999" stroke-width="3" stroke-linecap="round" stroke-linejoin="round" stroke-miterlimit="10" x1="357.307" y1="67.643" x2="357.307" y2="88.4"/>
	
		<line fill="none" stroke="#999999" stroke-width="3" stroke-linecap="round" stroke-linejoin="round" stroke-miterlimit="10" x1="386.748" y1="47.568" x2="386.748" y2="88.4"/>
	
		<line fill="none" stroke="#999999" stroke-width="3" stroke-linecap="round" stroke-linejoin="round" stroke-miterlimit="10" x1="357.307" y1="47.568" x2="386.748" y2="47.568"/>
	
		<line fill="none" stroke="#999999" stroke-width="3" stroke-linecap="round" stroke-linejoin="round" stroke-miterlimit="10" x1="58.4" y1="10.089" x2="58.4" y2="48.552"/>
	
		<line fill="none" stroke="#999999" stroke-width="3" stroke-linecap="round" stroke-linejoin="round" stroke-miterlimit="10" x1="58.4" y1="48.552" x2="58.4" y2="88.982"/>
	
		<line fill="none" stroke="#999999" stroke-width="3" stroke-linecap="round" stroke-linejoin="round" stroke-miterlimit="10" x1="66.27" y1="10.089" x2="87.549" y2="10.089"/>
	
		<line fill="none" stroke="#999999" stroke-width="3" stroke-linecap="round" stroke-linejoin="round" stroke-miterlimit="10" x1="66.27" y1="48.552" x2="87.549" y2="48.552"/>
	
		<line fill="none" stroke="#999999" stroke-width="3" stroke-linecap="round" stroke-linejoin="round" stroke-miterlimit="10" x1="66.27" y1="88.982" x2="87.549" y2="88.982"/>
	
		<line fill="none" stroke="#999999" stroke-width="3" stroke-linecap="round" stroke-linejoin="round" stroke-miterlimit="10" x1="148.264" y1="10.089" x2="148.264" y2="48.552"/>
	
		<line fill="none" stroke="#999999" stroke-width="3" stroke-linecap="round" stroke-linejoin="round" stroke-miterlimit="10" x1="148.264" y1="48.552" x2="148.264" y2="88.982"/>
	
		<line fill="none" stroke="#999999" stroke-width="3" stroke-linecap="round" stroke-linejoin="round" stroke-miterlimit="10" x1="156.134" y1="10.089" x2="177.414" y2="10.089"/>
	
		<line fill="none" stroke="#999999" stroke-width="3" stroke-linecap="round" stroke-linejoin="round" stroke-miterlimit="10" x1="156.134" y1="48.552" x2="177.414" y2="48.552"/>
	
		<line fill="none" stroke="#999999" stroke-width="3" stroke-linecap="round" stroke-linejoin="round" stroke-miterlimit="10" x1="156.134" y1="88.982" x2="177.414" y2="88.982"/>
	<path fill="none" stroke="#999999" stroke-width="3" stroke-linecap="round" stroke-linejoin="round" stroke-miterlimit="10" d="
		M107.357,69.135c0,10.879,5.497,19.686,12.284,19.686"/>
	<path fill="none" stroke="#999999" stroke-width="3" stroke-linecap="round" stroke-linejoin="round" stroke-miterlimit="10" d="
		M107.357,29.771c0,10.876,5.497,19.686,12.284,19.686"/>
	<path fill="none" stroke="#999999" stroke-width="3" stroke-linecap="round" stroke-linejoin="round" stroke-miterlimit="10" d="
		M119.641,88.816c6.793,0,12.284-8.799,12.284-19.683"/>
	<path fill="none" stroke="#999999" stroke-width="3" stroke-linecap="round" stroke-linejoin="round" stroke-miterlimit="10" d="
		M131.924,69.135c0-10.876-5.494-19.683-12.284-19.683"/>
	<path fill="none" stroke="#999999" stroke-width="3" stroke-linecap="round" stroke-linejoin="round" stroke-miterlimit="10" d="
		M131.924,29.771c0-10.875-5.494-19.685-12.284-19.685"/>
	<path fill="none" stroke="#999999" stroke-width="3" stroke-linecap="round" stroke-linejoin="round" stroke-miterlimit="10" d="
		M119.641,10.089c-6.791,0-12.284,8.803-12.284,19.686"/>
	<path fill="none" stroke="#999999" stroke-width="3" stroke-linecap="round" stroke-linejoin="round" stroke-miterlimit="10" d="
		M12.069,48.551h12.755c8.025,0,14.528-8.599,14.528-19.225c0-10.637-6.502-19.237-14.528-19.237H10.986"/>
	<path fill="none" stroke="#999999" stroke-width="3" stroke-linecap="round" stroke-linejoin="round" stroke-miterlimit="10" d="
		M253.834,48.551l24.938,40.432L253.834,48.551z"/>
	<path fill="none" stroke="#999999" stroke-width="3" stroke-linecap="round" stroke-linejoin="round" stroke-miterlimit="10" d="
		M254.514,48.551h12.756c8.026,0,14.527-8.599,14.527-19.225c0-10.637-6.503-19.237-14.527-19.237h-13.838"/>
</g>
<g id="deisgn_1_">
</g>
</svg>
